# xmcd
#
# Track frame offsets:
#	150
#	13629
#	27835
#	41073
#	57052
#	70017
#	81105
#	95179
#	106458
#	118871
#	132579
#	145682
#	163573
#	176822
#	195246
#	210055
#
# Disc length: 3005 seconds
#
# Revision: 0
# Processed by: cddbd v1.5.1PL2 Copyright (c) Steve Scherf et al.
# Submitted via: EasyCDDAExtractor 9.0.0.1
#
DISCID=d60bbb10
DTITLE=Cowboy-Laila - Veien Hjem
DYEAR=1900
DGENRE=Country
TTITLE0=Ungkar fra Sjåk
TTITLE1=Rocky Mountains is
TTITLE2=Jul hele året
TTITLE3=En rose jeg vil gi
TTITLE4=Barne bønn
TTITLE5=Don't you play a know how
TTITLE6=Nattens dronning
TTITLE7=Herren ga oss rock
TTITLE8=Mine nye tenner og hår
TTITLE9=Jeg vil se mitt gamle Norge før jeg dør
TTITLE10=Rosa Cadillac
TTITLE11=Min siste øl 
TTITLE12=Fattig,men rik
TTITLE13=Lost heart
TTITLE14=Don't shoot my pianoplayer
TTITLE15=Englevakt
EXTD=
EXTT0=
EXTT1=
EXTT2=
EXTT3=
EXTT4=
EXTT5=
EXTT6=
EXTT7=
EXTT8=
EXTT9=
EXTT10=
EXTT11=
EXTT12=
EXTT13=
EXTT14=
EXTT15=
PLAYORDER=
